<mxfile host="Electron" agent="Mozilla/5.0 (Windows NT 10.0; Win64; x64) AppleWebKit/537.36 (KHTML, like Gecko) draw.io/24.7.17 Chrome/128.0.6613.36 Electron/32.0.1 Safari/537.36" version="24.7.17">
  <diagram id="R2lEEEUBdFMjLlhIrx00" name="Page-1">
    <mxGraphModel dx="3640" dy="1393" grid="1" gridSize="10" guides="1" tooltips="1" connect="1" arrows="1" fold="1" page="1" pageScale="1" pageWidth="850" pageHeight="1100" background="#ffffff" math="0" shadow="0" extFonts="Permanent Marker^https://fonts.googleapis.com/css?family=Permanent+Marker">
      <root>
        <mxCell id="0" />
        <mxCell id="1" parent="0" />
        <mxCell id="9n2Kgq9F9miumqy1_BX9-11" value="" style="rounded=0;whiteSpace=wrap;html=1;fillColor=none;shadow=1;strokeColor=#000000;" parent="1" vertex="1">
          <mxGeometry x="440" y="860" width="820" height="280" as="geometry" />
        </mxCell>
        <mxCell id="wN_SJ8lVQeEceDED6Cjc-2" value="DNI" style="ellipse;whiteSpace=wrap;html=1;fillColor=#eeeeee;strokeColor=#000000;fontColor=#000000;" parent="1" vertex="1">
          <mxGeometry x="-20" y="140" width="60" height="40" as="geometry" />
        </mxCell>
        <mxCell id="wN_SJ8lVQeEceDED6Cjc-3" value="" style="endArrow=none;html=1;rounded=0;entryX=1;entryY=1;entryDx=0;entryDy=0;fillColor=#f5f5f5;strokeColor=#000000;exitX=0;exitY=0.25;exitDx=0;exitDy=0;" parent="1" source="wN_SJ8lVQeEceDED6Cjc-15" target="wN_SJ8lVQeEceDED6Cjc-2" edge="1">
          <mxGeometry width="50" height="50" relative="1" as="geometry">
            <mxPoint x="140" y="180" as="sourcePoint" />
            <mxPoint x="190" y="180" as="targetPoint" />
          </mxGeometry>
        </mxCell>
        <mxCell id="wN_SJ8lVQeEceDED6Cjc-4" value="NSS" style="ellipse;whiteSpace=wrap;html=1;fillColor=#eeeeee;strokeColor=#000000;labelBackgroundColor=none;fontColor=#000000;" parent="1" vertex="1">
          <mxGeometry x="20" y="85" width="60" height="40" as="geometry" />
        </mxCell>
        <mxCell id="wN_SJ8lVQeEceDED6Cjc-5" value="" style="endArrow=none;html=1;rounded=0;entryX=0;entryY=1;entryDx=0;entryDy=0;fillColor=#f5f5f5;strokeColor=#000000;exitX=0.75;exitY=0;exitDx=0;exitDy=0;" parent="1" source="wN_SJ8lVQeEceDED6Cjc-15" target="wN_SJ8lVQeEceDED6Cjc-7" edge="1">
          <mxGeometry width="50" height="50" relative="1" as="geometry">
            <mxPoint x="170" y="180" as="sourcePoint" />
            <mxPoint x="220" y="130" as="targetPoint" />
          </mxGeometry>
        </mxCell>
        <mxCell id="wN_SJ8lVQeEceDED6Cjc-6" value="" style="endArrow=none;html=1;rounded=0;entryX=0.5;entryY=1;entryDx=0;entryDy=0;fillColor=#f5f5f5;strokeColor=#000000;exitX=0.25;exitY=0;exitDx=0;exitDy=0;" parent="1" source="wN_SJ8lVQeEceDED6Cjc-15" target="wN_SJ8lVQeEceDED6Cjc-4" edge="1">
          <mxGeometry width="50" height="50" relative="1" as="geometry">
            <mxPoint x="160" y="160" as="sourcePoint" />
            <mxPoint x="190" y="140" as="targetPoint" />
          </mxGeometry>
        </mxCell>
        <mxCell id="wN_SJ8lVQeEceDED6Cjc-7" value="Edad" style="ellipse;whiteSpace=wrap;html=1;fillColor=#eeeeee;strokeColor=#000000;fontColor=#000000;" parent="1" vertex="1">
          <mxGeometry x="280" y="125" width="60" height="40" as="geometry" />
        </mxCell>
        <mxCell id="wN_SJ8lVQeEceDED6Cjc-9" value="Teléfono" style="ellipse;whiteSpace=wrap;html=1;fillColor=#eeeeee;strokeColor=#000000;fontColor=#000000;" parent="1" vertex="1">
          <mxGeometry x="290" y="180" width="70" height="40" as="geometry" />
        </mxCell>
        <mxCell id="wN_SJ8lVQeEceDED6Cjc-12" value="" style="endArrow=none;html=1;rounded=0;" parent="1" edge="1">
          <mxGeometry width="50" height="50" relative="1" as="geometry">
            <mxPoint x="450" y="320" as="sourcePoint" />
            <mxPoint x="450" y="320" as="targetPoint" />
            <Array as="points">
              <mxPoint x="450" y="320" />
            </Array>
          </mxGeometry>
        </mxCell>
        <mxCell id="wN_SJ8lVQeEceDED6Cjc-15" value="Trabajador" style="rounded=0;whiteSpace=wrap;html=1;fillColor=#eeeeee;strokeColor=#000000;fontColor=#000000;fontSize=15;" parent="1" vertex="1">
          <mxGeometry x="100" y="180" width="120" height="60" as="geometry" />
        </mxCell>
        <mxCell id="wN_SJ8lVQeEceDED6Cjc-16" value="Farmacéutico" style="rounded=0;whiteSpace=wrap;html=1;fillColor=#eeeeee;strokeColor=#000000;fontColor=#000000;fontSize=15;" parent="1" vertex="1">
          <mxGeometry x="-50" y="420" width="120" height="60" as="geometry" />
        </mxCell>
        <mxCell id="wN_SJ8lVQeEceDED6Cjc-18" value="&lt;font style=&quot;font-size: 18px;&quot;&gt;o&lt;/font&gt;" style="ellipse;whiteSpace=wrap;html=1;aspect=fixed;fillColor=#eeeeee;strokeColor=#000000;fontColor=#000000;" parent="1" vertex="1">
          <mxGeometry x="130" y="300" width="60" height="60" as="geometry" />
        </mxCell>
        <mxCell id="wN_SJ8lVQeEceDED6Cjc-19" value="" style="endArrow=none;html=1;rounded=0;exitX=0.5;exitY=0;exitDx=0;exitDy=0;strokeWidth=4;fillColor=#f5f5f5;strokeColor=#000000;labelBackgroundColor=#FFFFFF;fontColor=#000000;" parent="1" source="wN_SJ8lVQeEceDED6Cjc-18" target="wN_SJ8lVQeEceDED6Cjc-15" edge="1">
          <mxGeometry width="50" height="50" relative="1" as="geometry">
            <mxPoint x="90" y="260" as="sourcePoint" />
            <mxPoint x="140" y="210" as="targetPoint" />
          </mxGeometry>
        </mxCell>
        <mxCell id="wN_SJ8lVQeEceDED6Cjc-20" value="" style="endArrow=none;html=1;rounded=0;entryX=0;entryY=0.5;entryDx=0;entryDy=0;fillColor=#f5f5f5;strokeColor=#000000;" parent="1" source="wN_SJ8lVQeEceDED6Cjc-16" target="wN_SJ8lVQeEceDED6Cjc-18" edge="1">
          <mxGeometry width="50" height="50" relative="1" as="geometry">
            <mxPoint x="10" y="399.28932188134524" as="sourcePoint" />
            <mxPoint x="10" y="349.28932188134524" as="targetPoint" />
            <Array as="points">
              <mxPoint x="10" y="330" />
            </Array>
          </mxGeometry>
        </mxCell>
        <mxCell id="wN_SJ8lVQeEceDED6Cjc-21" value="&lt;font style=&quot;font-size: 16px;&quot;&gt;Investigador&lt;/font&gt;" style="rounded=0;whiteSpace=wrap;html=1;fillColor=#eeeeee;strokeColor=#36393d;fontColor=#000000;" parent="1" vertex="1">
          <mxGeometry x="250" y="420" width="120" height="60" as="geometry" />
        </mxCell>
        <mxCell id="wN_SJ8lVQeEceDED6Cjc-22" value="" style="endArrow=none;html=1;rounded=0;exitX=1;exitY=0.5;exitDx=0;exitDy=0;entryX=0.5;entryY=0;entryDx=0;entryDy=0;fillColor=#f5f5f5;strokeColor=#000000;" parent="1" source="wN_SJ8lVQeEceDED6Cjc-18" target="wN_SJ8lVQeEceDED6Cjc-21" edge="1">
          <mxGeometry width="50" height="50" relative="1" as="geometry">
            <mxPoint x="310" y="460" as="sourcePoint" />
            <mxPoint x="360" y="410" as="targetPoint" />
            <Array as="points">
              <mxPoint x="310" y="330" />
            </Array>
          </mxGeometry>
        </mxCell>
        <mxCell id="wN_SJ8lVQeEceDED6Cjc-27" value="&lt;span style=&quot;font-size: 15px;&quot;&gt;Título&lt;/span&gt;" style="ellipse;whiteSpace=wrap;html=1;labelBackgroundColor=none;labelBorderColor=none;fillColor=#eeeeee;strokeColor=#36393d;" parent="1" vertex="1">
          <mxGeometry x="250" y="530" width="120" height="40" as="geometry" />
        </mxCell>
        <mxCell id="wN_SJ8lVQeEceDED6Cjc-28" value="" style="endArrow=none;html=1;rounded=0;exitX=0.5;exitY=1;exitDx=0;exitDy=0;fillColor=#f5f5f5;gradientColor=#b3b3b3;strokeColor=#000000;entryX=0.5;entryY=0;entryDx=0;entryDy=0;" parent="1" source="wN_SJ8lVQeEceDED6Cjc-21" target="wN_SJ8lVQeEceDED6Cjc-27" edge="1">
          <mxGeometry width="50" height="50" relative="1" as="geometry">
            <mxPoint x="370" y="470" as="sourcePoint" />
            <mxPoint x="420" y="420" as="targetPoint" />
          </mxGeometry>
        </mxCell>
        <mxCell id="wN_SJ8lVQeEceDED6Cjc-33" value="&lt;font style=&quot;font-size: 16px;&quot; color=&quot;#000000&quot;&gt;Supervisor&lt;/font&gt;" style="rounded=0;whiteSpace=wrap;html=1;fillColor=#eeeeee;strokeColor=#36393d;" parent="1" vertex="1">
          <mxGeometry x="100" y="640" width="120" height="60" as="geometry" />
        </mxCell>
        <mxCell id="wN_SJ8lVQeEceDED6Cjc-35" value="&lt;font style=&quot;font-size: 16px;&quot; color=&quot;#000000&quot;&gt;Departamento&lt;/font&gt;" style="rounded=0;whiteSpace=wrap;html=1;fillColor=#eeeeee;strokeColor=#000000;" parent="1" vertex="1">
          <mxGeometry x="780" y="265" width="120" height="60" as="geometry" />
        </mxCell>
        <mxCell id="wN_SJ8lVQeEceDED6Cjc-37" value="&lt;font style=&quot;font-size: 16px;&quot; color=&quot;#000000&quot;&gt;dirige&lt;/font&gt;" style="rhombus;whiteSpace=wrap;html=1;fillColor=#eeeeee;strokeColor=#36393d;" parent="1" vertex="1">
          <mxGeometry x="440" y="395" width="120" height="110" as="geometry" />
        </mxCell>
        <mxCell id="wN_SJ8lVQeEceDED6Cjc-39" value="" style="endArrow=none;html=1;rounded=0;entryX=1;entryY=0.5;entryDx=0;entryDy=0;strokeColor=#000000;" parent="1" source="wN_SJ8lVQeEceDED6Cjc-37" target="wN_SJ8lVQeEceDED6Cjc-21" edge="1">
          <mxGeometry width="50" height="50" relative="1" as="geometry">
            <mxPoint x="489.28932188134524" y="510" as="sourcePoint" />
            <mxPoint x="369.6999999999998" y="459.9200000000001" as="targetPoint" />
            <Array as="points" />
          </mxGeometry>
        </mxCell>
        <mxCell id="boBfQGq755tC5SNfsTAn-4" value="" style="endArrow=none;html=1;rounded=0;entryX=0.161;entryY=-0.019;entryDx=0;entryDy=0;strokeColor=#000000;exitX=1;exitY=0.5;exitDx=0;exitDy=0;exitPerimeter=0;entryPerimeter=0;" parent="1" source="cMPm9qXNbd8lJD3Um6Hj-16" target="wN_SJ8lVQeEceDED6Cjc-33" edge="1">
          <mxGeometry width="50" height="50" relative="1" as="geometry">
            <mxPoint x="70" y="440" as="sourcePoint" />
            <mxPoint x="155" y="580" as="targetPoint" />
            <Array as="points" />
          </mxGeometry>
        </mxCell>
        <mxCell id="boBfQGq755tC5SNfsTAn-5" value="" style="endArrow=none;html=1;rounded=0;entryX=0;entryY=0.5;entryDx=0;entryDy=0;strokeColor=#000000;exitX=1;exitY=0.5;exitDx=0;exitDy=0;exitPerimeter=0;" parent="1" source="cMPm9qXNbd8lJD3Um6Hj-18" target="wN_SJ8lVQeEceDED6Cjc-21" edge="1">
          <mxGeometry width="50" height="50" relative="1" as="geometry">
            <mxPoint x="220" y="550" as="sourcePoint" />
            <mxPoint x="570" y="610" as="targetPoint" />
            <Array as="points">
              <mxPoint x="194" y="450" />
            </Array>
          </mxGeometry>
        </mxCell>
        <mxCell id="boBfQGq755tC5SNfsTAn-7" value="&lt;font style=&quot;font-size: 16px;&quot; color=&quot;#000000&quot;&gt;Medicamento&lt;/font&gt;" style="rounded=0;whiteSpace=wrap;html=1;fillColor=#eeeeee;strokeColor=#000000;" parent="1" vertex="1">
          <mxGeometry x="780" y="560" width="120" height="60" as="geometry" />
        </mxCell>
        <mxCell id="boBfQGq755tC5SNfsTAn-9" value="&lt;font style=&quot;font-size: 16px;&quot; color=&quot;#000000&quot;&gt;fabrica&lt;/font&gt;" style="rhombus;whiteSpace=wrap;html=1;strokeColor=#36393d;fillColor=#eeeeee;" parent="1" vertex="1">
          <mxGeometry x="785" y="420" width="110" height="100" as="geometry" />
        </mxCell>
        <mxCell id="boBfQGq755tC5SNfsTAn-11" value="" style="endArrow=none;html=1;rounded=0;exitX=0.5;exitY=1;exitDx=0;exitDy=0;strokeColor=#000000;entryX=0.5;entryY=0;entryDx=0;entryDy=0;" parent="1" source="boBfQGq755tC5SNfsTAn-9" target="boBfQGq755tC5SNfsTAn-7" edge="1">
          <mxGeometry width="50" height="50" relative="1" as="geometry">
            <mxPoint x="450" y="520" as="sourcePoint" />
            <mxPoint x="790" y="600" as="targetPoint" />
          </mxGeometry>
        </mxCell>
        <mxCell id="boBfQGq755tC5SNfsTAn-12" value="&lt;span style=&quot;font-size: 15px;&quot;&gt;d&lt;/span&gt;" style="ellipse;whiteSpace=wrap;html=1;aspect=fixed;strokeColor=#36393d;fillColor=#eeeeee;fontColor=#000000;" parent="1" vertex="1">
          <mxGeometry x="980" y="550" width="80" height="80" as="geometry" />
        </mxCell>
        <mxCell id="boBfQGq755tC5SNfsTAn-13" value="" style="endArrow=none;html=1;rounded=0;exitX=1;exitY=0.5;exitDx=0;exitDy=0;entryX=0;entryY=0.5;entryDx=0;entryDy=0;strokeColor=#000000;" parent="1" target="boBfQGq755tC5SNfsTAn-12" edge="1">
          <mxGeometry width="50" height="50" relative="1" as="geometry">
            <mxPoint x="930.0000000000005" y="590" as="sourcePoint" />
            <mxPoint x="980" y="580" as="targetPoint" />
          </mxGeometry>
        </mxCell>
        <mxCell id="boBfQGq755tC5SNfsTAn-14" value="&lt;font style=&quot;font-size: 15px;&quot;&gt;Vacuna&lt;/font&gt;" style="whiteSpace=wrap;html=1;align=center;fillColor=#eeeeee;strokeColor=#000000;fontColor=#000000;" parent="1" vertex="1">
          <mxGeometry x="1160" y="480" width="140" height="50" as="geometry" />
        </mxCell>
        <mxCell id="boBfQGq755tC5SNfsTAn-16" value="" style="endArrow=none;html=1;rounded=0;exitX=1;exitY=0;exitDx=0;exitDy=0;entryX=0;entryY=0.5;entryDx=0;entryDy=0;strokeColor=#000000;" parent="1" source="boBfQGq755tC5SNfsTAn-12" target="boBfQGq755tC5SNfsTAn-14" edge="1">
          <mxGeometry relative="1" as="geometry">
            <mxPoint x="1080" y="560" as="sourcePoint" />
            <mxPoint x="1240" y="560" as="targetPoint" />
            <Array as="points">
              <mxPoint x="1048" y="505" />
            </Array>
          </mxGeometry>
        </mxCell>
        <mxCell id="boBfQGq755tC5SNfsTAn-17" value="&lt;font style=&quot;font-size: 15px;&quot; color=&quot;#000000&quot;&gt;Antibiótico&lt;/font&gt;" style="whiteSpace=wrap;html=1;align=center;fillColor=#eeeeee;strokeColor=#000000;" parent="1" vertex="1">
          <mxGeometry x="1160" y="575" width="140" height="50" as="geometry" />
        </mxCell>
        <mxCell id="boBfQGq755tC5SNfsTAn-18" value="" style="endArrow=none;html=1;rounded=0;exitX=1.015;exitY=0.633;exitDx=0;exitDy=0;entryX=0;entryY=0.5;entryDx=0;entryDy=0;exitPerimeter=0;strokeColor=#000000;" parent="1" source="boBfQGq755tC5SNfsTAn-12" target="boBfQGq755tC5SNfsTAn-17" edge="1">
          <mxGeometry relative="1" as="geometry">
            <mxPoint x="1020" y="620" as="sourcePoint" />
            <mxPoint x="1180" y="620" as="targetPoint" />
          </mxGeometry>
        </mxCell>
        <mxCell id="boBfQGq755tC5SNfsTAn-19" value="&lt;font style=&quot;font-size: 16px;&quot;&gt;Analgésico&lt;/font&gt;" style="whiteSpace=wrap;html=1;align=center;fillColor=#eeeeee;strokeColor=#000000;fontColor=#000000;" parent="1" vertex="1">
          <mxGeometry x="1160" y="680" width="140" height="50" as="geometry" />
        </mxCell>
        <mxCell id="boBfQGq755tC5SNfsTAn-22" value="" style="endArrow=none;html=1;rounded=0;exitX=1;exitY=1;exitDx=0;exitDy=0;entryX=0;entryY=0.5;entryDx=0;entryDy=0;strokeColor=#000000;" parent="1" source="boBfQGq755tC5SNfsTAn-12" target="boBfQGq755tC5SNfsTAn-19" edge="1">
          <mxGeometry relative="1" as="geometry">
            <mxPoint x="1030" y="710" as="sourcePoint" />
            <mxPoint x="1190" y="710" as="targetPoint" />
            <Array as="points">
              <mxPoint x="1050" y="705" />
            </Array>
          </mxGeometry>
        </mxCell>
        <mxCell id="9n2Kgq9F9miumqy1_BX9-2" value="&lt;font style=&quot;font-size: 18px;&quot;&gt;Farmacia&lt;/font&gt;" style="rounded=0;whiteSpace=wrap;html=1;fillColor=#EEEEEE;" parent="1" vertex="1">
          <mxGeometry x="550" y="895" width="120" height="60" as="geometry" />
        </mxCell>
        <mxCell id="9n2Kgq9F9miumqy1_BX9-3" value="&lt;font style=&quot;font-size: 18px;&quot;&gt;Camionero&lt;/font&gt;" style="rounded=0;whiteSpace=wrap;html=1;fillColor=#EEEEEE;" parent="1" vertex="1">
          <mxGeometry x="1040" y="895" width="120" height="60" as="geometry" />
        </mxCell>
        <mxCell id="9n2Kgq9F9miumqy1_BX9-4" value="&lt;font style=&quot;font-size: 14px;&quot;&gt;transporta_a&lt;/font&gt;" style="rhombus;whiteSpace=wrap;html=1;fillColor=#EEEEEE;" parent="1" vertex="1">
          <mxGeometry x="802.5" y="875" width="110" height="100" as="geometry" />
        </mxCell>
        <mxCell id="9n2Kgq9F9miumqy1_BX9-5" value="" style="endArrow=none;html=1;rounded=0;entryX=0;entryY=0.5;entryDx=0;entryDy=0;exitX=1;exitY=0.5;exitDx=0;exitDy=0;" parent="1" source="9n2Kgq9F9miumqy1_BX9-2" target="9n2Kgq9F9miumqy1_BX9-4" edge="1">
          <mxGeometry width="50" height="50" relative="1" as="geometry">
            <mxPoint x="670" y="890" as="sourcePoint" />
            <mxPoint x="680" y="860" as="targetPoint" />
          </mxGeometry>
        </mxCell>
        <mxCell id="9n2Kgq9F9miumqy1_BX9-6" value="" style="endArrow=none;html=1;rounded=0;entryX=0;entryY=0.5;entryDx=0;entryDy=0;exitX=1;exitY=0.5;exitDx=0;exitDy=0;" parent="1" source="9n2Kgq9F9miumqy1_BX9-4" target="9n2Kgq9F9miumqy1_BX9-3" edge="1">
          <mxGeometry width="50" height="50" relative="1" as="geometry">
            <mxPoint x="910" y="890" as="sourcePoint" />
            <mxPoint x="960" y="840" as="targetPoint" />
          </mxGeometry>
        </mxCell>
        <mxCell id="9n2Kgq9F9miumqy1_BX9-7" value="" style="endArrow=none;html=1;rounded=0;entryX=0;entryY=0.5;entryDx=0;entryDy=0;exitX=0.25;exitY=1;exitDx=0;exitDy=0;" parent="1" source="EjBYFWdCqptAFFjmYWKn-26" target="9n2Kgq9F9miumqy1_BX9-8" edge="1">
          <mxGeometry width="50" height="50" relative="1" as="geometry">
            <mxPoint x="810" y="990" as="sourcePoint" />
            <mxPoint x="910" y="790" as="targetPoint" />
          </mxGeometry>
        </mxCell>
        <mxCell id="9n2Kgq9F9miumqy1_BX9-8" value="&lt;span style=&quot;font-size: 18px;&quot;&gt;Fecha_Fin&lt;/span&gt;" style="ellipse;whiteSpace=wrap;html=1;fillColor=#EEEEEE;" parent="1" vertex="1">
          <mxGeometry x="710" y="940" width="100" height="60" as="geometry" />
        </mxCell>
        <mxCell id="9n2Kgq9F9miumqy1_BX9-9" value="&lt;span style=&quot;font-size: 18px;&quot;&gt;Fecha_Inicio&lt;/span&gt;" style="ellipse;whiteSpace=wrap;html=1;fillColor=#EEEEEE;" parent="1" vertex="1">
          <mxGeometry x="675" y="1010" width="110" height="60" as="geometry" />
        </mxCell>
        <mxCell id="9n2Kgq9F9miumqy1_BX9-10" value="" style="endArrow=none;html=1;rounded=0;exitX=0;exitY=0;exitDx=0;exitDy=0;entryX=0.25;entryY=1;entryDx=0;entryDy=0;" parent="1" source="9n2Kgq9F9miumqy1_BX9-9" target="EjBYFWdCqptAFFjmYWKn-26" edge="1">
          <mxGeometry width="50" height="50" relative="1" as="geometry">
            <mxPoint x="790" y="850" as="sourcePoint" />
            <mxPoint x="840" y="800" as="targetPoint" />
          </mxGeometry>
        </mxCell>
        <mxCell id="9n2Kgq9F9miumqy1_BX9-12" value="&lt;font style=&quot;font-size: 18px;&quot;&gt;envia&lt;/font&gt;" style="rhombus;whiteSpace=wrap;html=1;fillColor=#EEEEEE;" parent="1" vertex="1">
          <mxGeometry x="795" y="725" width="90" height="95" as="geometry" />
        </mxCell>
        <mxCell id="9n2Kgq9F9miumqy1_BX9-13" value="" style="endArrow=none;html=1;rounded=0;entryX=0.5;entryY=1;entryDx=0;entryDy=0;exitX=0.5;exitY=0;exitDx=0;exitDy=0;" parent="1" source="9n2Kgq9F9miumqy1_BX9-12" target="boBfQGq755tC5SNfsTAn-7" edge="1">
          <mxGeometry width="50" height="50" relative="1" as="geometry">
            <mxPoint x="850" y="670" as="sourcePoint" />
            <mxPoint x="900" y="620" as="targetPoint" />
          </mxGeometry>
        </mxCell>
        <mxCell id="9n2Kgq9F9miumqy1_BX9-14" value="" style="endArrow=none;html=1;rounded=0;entryX=0.5;entryY=1;entryDx=0;entryDy=0;" parent="1" target="9n2Kgq9F9miumqy1_BX9-12" edge="1">
          <mxGeometry width="50" height="50" relative="1" as="geometry">
            <mxPoint x="840" y="860" as="sourcePoint" />
            <mxPoint x="850" y="750" as="targetPoint" />
          </mxGeometry>
        </mxCell>
        <mxCell id="9n2Kgq9F9miumqy1_BX9-15" value="&lt;font style=&quot;font-size: 14px;&quot;&gt;supervisa&lt;/font&gt;" style="rhombus;whiteSpace=wrap;html=1;fillColor=#EEEEEE;" parent="1" vertex="1">
          <mxGeometry x="430" y="535" width="120" height="110" as="geometry" />
        </mxCell>
        <mxCell id="9n2Kgq9F9miumqy1_BX9-17" value="" style="endArrow=none;html=1;rounded=0;exitX=1;exitY=0.5;exitDx=0;exitDy=0;entryX=0;entryY=0.5;entryDx=0;entryDy=0;" parent="1" source="9n2Kgq9F9miumqy1_BX9-15" target="boBfQGq755tC5SNfsTAn-7" edge="1">
          <mxGeometry width="50" height="50" relative="1" as="geometry">
            <mxPoint x="350" y="950" as="sourcePoint" />
            <mxPoint x="400" y="900" as="targetPoint" />
            <Array as="points" />
          </mxGeometry>
        </mxCell>
        <mxCell id="9n2Kgq9F9miumqy1_BX9-18" value="&lt;font style=&quot;font-size: 18px;&quot;&gt;Envio&lt;/font&gt;" style="text;html=1;align=center;verticalAlign=middle;whiteSpace=wrap;rounded=0;" parent="1" vertex="1">
          <mxGeometry x="440" y="830" width="60" height="30" as="geometry" />
        </mxCell>
        <mxCell id="9n2Kgq9F9miumqy1_BX9-20" value="&lt;span style=&quot;font-size: 18px;&quot;&gt;Compañia_Envíos&lt;/span&gt;" style="rounded=0;whiteSpace=wrap;html=1;fillColor=#EEEEEE;" parent="1" vertex="1">
          <mxGeometry x="1590" y="885" width="180" height="80" as="geometry" />
        </mxCell>
        <mxCell id="9n2Kgq9F9miumqy1_BX9-21" value="&lt;font style=&quot;font-size: 14px;&quot;&gt;encargada&lt;/font&gt;" style="rhombus;whiteSpace=wrap;html=1;fillColor=#EEEEEE;" parent="1" vertex="1">
          <mxGeometry x="1420" y="875" width="100" height="100" as="geometry" />
        </mxCell>
        <mxCell id="9n2Kgq9F9miumqy1_BX9-22" value="" style="endArrow=none;html=1;rounded=0;entryX=1;entryY=0.5;entryDx=0;entryDy=0;" parent="1" source="9n2Kgq9F9miumqy1_BX9-20" target="9n2Kgq9F9miumqy1_BX9-21" edge="1">
          <mxGeometry width="50" height="50" relative="1" as="geometry">
            <mxPoint x="1519.2893218813451" y="975" as="sourcePoint" />
            <mxPoint x="1519.2893218813451" y="925" as="targetPoint" />
          </mxGeometry>
        </mxCell>
        <mxCell id="9n2Kgq9F9miumqy1_BX9-24" value="" style="endArrow=none;html=1;rounded=0;entryX=0;entryY=0.5;entryDx=0;entryDy=0;exitX=1;exitY=0.23;exitDx=0;exitDy=0;exitPerimeter=0;" parent="1" source="9n2Kgq9F9miumqy1_BX9-11" target="9n2Kgq9F9miumqy1_BX9-21" edge="1">
          <mxGeometry width="50" height="50" relative="1" as="geometry">
            <mxPoint x="1260" y="920" as="sourcePoint" />
            <mxPoint x="1370" y="900" as="targetPoint" />
          </mxGeometry>
        </mxCell>
        <mxCell id="JnEA_6E_3DPC_kqwpnpe-1" value="Realiza" style="shape=rhombus;double=1;perimeter=rhombusPerimeter;whiteSpace=wrap;html=1;align=center;fillColor=#EEEEEE;" parent="1" vertex="1">
          <mxGeometry x="960" y="257.5" width="120" height="75" as="geometry" />
        </mxCell>
        <mxCell id="JnEA_6E_3DPC_kqwpnpe-2" value="" style="line;strokeWidth=1;rotatable=0;dashed=0;labelPosition=right;align=left;verticalAlign=middle;spacingTop=0;spacingLeft=6;points=[];portConstraint=eastwest;" parent="1" vertex="1">
          <mxGeometry x="900" y="290" width="60" height="10" as="geometry" />
        </mxCell>
        <mxCell id="JnEA_6E_3DPC_kqwpnpe-3" value="" style="shape=link;html=1;rounded=0;" parent="1" edge="1">
          <mxGeometry relative="1" as="geometry">
            <mxPoint x="1080" y="294.29" as="sourcePoint" />
            <mxPoint x="1240" y="294.29" as="targetPoint" />
          </mxGeometry>
        </mxCell>
        <mxCell id="JnEA_6E_3DPC_kqwpnpe-5" value="&lt;font style=&quot;font-size: 18px;&quot;&gt;Proyecto&lt;/font&gt;" style="shape=process;whiteSpace=wrap;html=1;backgroundOutline=1;fillColor=#EEEEEE;" parent="1" vertex="1">
          <mxGeometry x="1240" y="265" width="120" height="60" as="geometry" />
        </mxCell>
        <mxCell id="JnEA_6E_3DPC_kqwpnpe-7" value="" style="endArrow=none;html=1;rounded=0;exitX=0;exitY=0.5;exitDx=0;exitDy=0;entryX=0.75;entryY=1;entryDx=0;entryDy=0;" parent="1" target="wN_SJ8lVQeEceDED6Cjc-16" edge="1">
          <mxGeometry width="50" height="50" relative="1" as="geometry">
            <mxPoint x="90" y="1205" as="sourcePoint" />
            <mxPoint x="-125" y="595" as="targetPoint" />
            <Array as="points">
              <mxPoint x="40" y="1205" />
            </Array>
          </mxGeometry>
        </mxCell>
        <mxCell id="JnEA_6E_3DPC_kqwpnpe-8" value="&lt;font style=&quot;font-size: 18px;&quot;&gt;recibe&lt;/font&gt;" style="rhombus;whiteSpace=wrap;html=1;fillColor=#EEEEEE;" parent="1" vertex="1">
          <mxGeometry x="90" y="1150" width="105" height="100" as="geometry" />
        </mxCell>
        <mxCell id="JnEA_6E_3DPC_kqwpnpe-9" value="" style="endArrow=none;html=1;rounded=0;entryX=0.339;entryY=1.001;entryDx=0;entryDy=0;entryPerimeter=0;" parent="1" target="9n2Kgq9F9miumqy1_BX9-11" edge="1">
          <mxGeometry width="50" height="50" relative="1" as="geometry">
            <mxPoint x="190" y="1200" as="sourcePoint" />
            <mxPoint x="720" y="1140" as="targetPoint" />
            <Array as="points">
              <mxPoint x="718" y="1200" />
            </Array>
          </mxGeometry>
        </mxCell>
        <mxCell id="cMPm9qXNbd8lJD3Um6Hj-1" value="" style="endArrow=none;html=1;rounded=0;entryX=0.5;entryY=1;entryDx=0;entryDy=0;exitX=0.5;exitY=0;exitDx=0;exitDy=0;" parent="1" source="boBfQGq755tC5SNfsTAn-9" target="wN_SJ8lVQeEceDED6Cjc-35" edge="1">
          <mxGeometry width="50" height="50" relative="1" as="geometry">
            <mxPoint x="840" y="410" as="sourcePoint" />
            <mxPoint x="730" y="310" as="targetPoint" />
          </mxGeometry>
        </mxCell>
        <mxCell id="cMPm9qXNbd8lJD3Um6Hj-2" value="&lt;font style=&quot;font-size: 14px;&quot;&gt;trabaja&lt;/font&gt;" style="rhombus;whiteSpace=wrap;html=1;fillColor=#EEEEEE;" parent="1" vertex="1">
          <mxGeometry x="450" y="260" width="100" height="100" as="geometry" />
        </mxCell>
        <mxCell id="cMPm9qXNbd8lJD3Um6Hj-3" value="" style="endArrow=none;html=1;rounded=0;entryX=0;entryY=1;entryDx=0;entryDy=0;" parent="1" target="wN_SJ8lVQeEceDED6Cjc-35" edge="1">
          <mxGeometry width="50" height="50" relative="1" as="geometry">
            <mxPoint x="560" y="452.5" as="sourcePoint" />
            <mxPoint x="820" y="332.5" as="targetPoint" />
            <Array as="points">
              <mxPoint x="780" y="453" />
            </Array>
          </mxGeometry>
        </mxCell>
        <mxCell id="cMPm9qXNbd8lJD3Um6Hj-4" value="" style="endArrow=none;html=1;rounded=0;entryX=0;entryY=0.5;entryDx=0;entryDy=0;" parent="1" target="cMPm9qXNbd8lJD3Um6Hj-2" edge="1">
          <mxGeometry width="50" height="50" relative="1" as="geometry">
            <mxPoint x="350" y="420" as="sourcePoint" />
            <mxPoint x="400" y="370" as="targetPoint" />
            <Array as="points">
              <mxPoint x="350" y="310" />
            </Array>
          </mxGeometry>
        </mxCell>
        <mxCell id="cMPm9qXNbd8lJD3Um6Hj-5" value="" style="endArrow=none;html=1;rounded=0;exitX=1;exitY=0.5;exitDx=0;exitDy=0;entryX=0;entryY=0.75;entryDx=0;entryDy=0;" parent="1" source="cMPm9qXNbd8lJD3Um6Hj-2" target="wN_SJ8lVQeEceDED6Cjc-35" edge="1">
          <mxGeometry width="50" height="50" relative="1" as="geometry">
            <mxPoint x="930" y="540" as="sourcePoint" />
            <mxPoint x="980" y="490" as="targetPoint" />
          </mxGeometry>
        </mxCell>
        <mxCell id="cMPm9qXNbd8lJD3Um6Hj-6" value="&lt;font style=&quot;font-size: 18px;&quot;&gt;dirige_a&lt;/font&gt;" style="rhombus;whiteSpace=wrap;html=1;fillColor=#EEEEEE;" parent="1" vertex="1">
          <mxGeometry x="-220" y="520" width="90" height="90" as="geometry" />
        </mxCell>
        <mxCell id="cMPm9qXNbd8lJD3Um6Hj-7" value="" style="endArrow=none;html=1;rounded=0;exitX=1;exitY=0.5;exitDx=0;exitDy=0;entryX=0.831;entryY=0.087;entryDx=0;entryDy=0;entryPerimeter=0;" parent="1" source="cMPm9qXNbd8lJD3Um6Hj-6" target="EjBYFWdCqptAFFjmYWKn-14" edge="1">
          <mxGeometry width="50" height="50" relative="1" as="geometry">
            <mxPoint x="-40" y="530" as="sourcePoint" />
            <mxPoint x="10" y="480" as="targetPoint" />
            <Array as="points">
              <mxPoint x="-20" y="565" />
              <mxPoint x="-20" y="520" />
            </Array>
          </mxGeometry>
        </mxCell>
        <mxCell id="cMPm9qXNbd8lJD3Um6Hj-8" value="" style="endArrow=none;html=1;rounded=0;entryX=0;entryY=0.5;entryDx=0;entryDy=0;" parent="1" source="cMPm9qXNbd8lJD3Um6Hj-6" target="wN_SJ8lVQeEceDED6Cjc-16" edge="1">
          <mxGeometry width="50" height="50" relative="1" as="geometry">
            <mxPoint x="-110" y="520" as="sourcePoint" />
            <mxPoint x="-60" y="470" as="targetPoint" />
            <Array as="points">
              <mxPoint x="-175" y="450" />
            </Array>
          </mxGeometry>
        </mxCell>
        <mxCell id="cMPm9qXNbd8lJD3Um6Hj-12" value="" style="endArrow=none;html=1;rounded=0;exitX=1;exitY=0.5;exitDx=0;exitDy=0;entryX=0;entryY=0.5;entryDx=0;entryDy=0;strokeColor=#000000;" parent="1" source="boBfQGq755tC5SNfsTAn-7" edge="1">
          <mxGeometry width="50" height="50" relative="1" as="geometry">
            <mxPoint x="900" y="590" as="sourcePoint" />
            <mxPoint x="960.0000000000005" y="590" as="targetPoint" />
          </mxGeometry>
        </mxCell>
        <mxCell id="cMPm9qXNbd8lJD3Um6Hj-15" value="" style="endArrow=none;html=1;rounded=0;strokeColor=#000000;exitX=1;exitY=0.5;exitDx=0;exitDy=0;exitPerimeter=0;" parent="1" source="cMPm9qXNbd8lJD3Um6Hj-16" edge="1">
          <mxGeometry width="50" height="50" relative="1" as="geometry">
            <mxPoint x="70" y="450" as="sourcePoint" />
            <mxPoint x="70" y="450" as="targetPoint" />
            <Array as="points">
              <mxPoint x="120" y="450" />
            </Array>
          </mxGeometry>
        </mxCell>
        <mxCell id="cMPm9qXNbd8lJD3Um6Hj-17" value="" style="endArrow=none;html=1;rounded=0;entryX=1;entryY=0.5;entryDx=0;entryDy=0;strokeColor=#000000;entryPerimeter=0;exitX=0.781;exitY=0;exitDx=0;exitDy=0;exitPerimeter=0;" parent="1" source="wN_SJ8lVQeEceDED6Cjc-33" target="cMPm9qXNbd8lJD3Um6Hj-18" edge="1">
          <mxGeometry width="50" height="50" relative="1" as="geometry">
            <mxPoint x="200" y="640" as="sourcePoint" />
            <mxPoint x="250" y="450" as="targetPoint" />
            <Array as="points" />
          </mxGeometry>
        </mxCell>
        <mxCell id="cMPm9qXNbd8lJD3Um6Hj-18" value="" style="shape=requiredInterface;html=1;verticalLabelPosition=bottom;sketch=0;direction=south;" parent="1" vertex="1">
          <mxGeometry x="167.5" y="525" width="52.5" height="27.5" as="geometry" />
        </mxCell>
        <mxCell id="sFR6SDiXfDD6RgqgtCTZ-1" value="" style="endArrow=none;html=1;rounded=0;entryX=0;entryY=0.5;entryDx=0;entryDy=0;exitX=1;exitY=0.5;exitDx=0;exitDy=0;" parent="1" source="wN_SJ8lVQeEceDED6Cjc-33" target="9n2Kgq9F9miumqy1_BX9-15" edge="1">
          <mxGeometry width="50" height="50" relative="1" as="geometry">
            <mxPoint x="220" y="680" as="sourcePoint" />
            <mxPoint x="270" y="630" as="targetPoint" />
          </mxGeometry>
        </mxCell>
        <mxCell id="sFR6SDiXfDD6RgqgtCTZ-2" value="&lt;font style=&quot;font-size: 14px;&quot;&gt;Licencia&lt;/font&gt;" style="ellipse;whiteSpace=wrap;html=1;fillColor=#EEEEEE;" parent="1" vertex="1">
          <mxGeometry x="-160" y="315" width="120" height="45" as="geometry" />
        </mxCell>
        <mxCell id="sFR6SDiXfDD6RgqgtCTZ-3" value="" style="endArrow=none;html=1;rounded=0;entryX=1;entryY=1;entryDx=0;entryDy=0;exitX=0.25;exitY=0;exitDx=0;exitDy=0;" parent="1" source="wN_SJ8lVQeEceDED6Cjc-16" target="sFR6SDiXfDD6RgqgtCTZ-2" edge="1">
          <mxGeometry width="50" height="50" relative="1" as="geometry">
            <mxPoint x="-50" y="430" as="sourcePoint" />
            <mxPoint y="380" as="targetPoint" />
          </mxGeometry>
        </mxCell>
        <mxCell id="sFR6SDiXfDD6RgqgtCTZ-4" value="&lt;font style=&quot;font-size: 18px;&quot;&gt;Nombre&lt;/font&gt;" style="ellipse;whiteSpace=wrap;html=1;fillColor=#EEEEEE;" parent="1" vertex="1">
          <mxGeometry x="1860" y="800" width="100" height="40" as="geometry" />
        </mxCell>
        <mxCell id="sFR6SDiXfDD6RgqgtCTZ-5" value="&lt;font style=&quot;font-size: 18px;&quot;&gt;Dirección&lt;/font&gt;" style="ellipse;whiteSpace=wrap;html=1;fillColor=#EEEEEE;" parent="1" vertex="1">
          <mxGeometry x="1860" y="875" width="100" height="45" as="geometry" />
        </mxCell>
        <mxCell id="sFR6SDiXfDD6RgqgtCTZ-6" value="&lt;span style=&quot;font-size: 18px;&quot;&gt;Teléfono&lt;/span&gt;" style="ellipse;whiteSpace=wrap;html=1;fillColor=#EEEEEE;" parent="1" vertex="1">
          <mxGeometry x="1870" y="950" width="90" height="40" as="geometry" />
        </mxCell>
        <mxCell id="sFR6SDiXfDD6RgqgtCTZ-7" value="&lt;span style=&quot;font-size: 18px;&quot;&gt;&lt;u&gt;Código&lt;/u&gt;&lt;/span&gt;" style="ellipse;whiteSpace=wrap;html=1;fillColor=#EEEEEE;" parent="1" vertex="1">
          <mxGeometry x="1870" y="1020" width="85" height="40" as="geometry" />
        </mxCell>
        <mxCell id="sFR6SDiXfDD6RgqgtCTZ-8" value="" style="endArrow=none;html=1;rounded=0;entryX=0;entryY=0.5;entryDx=0;entryDy=0;exitX=1;exitY=0.5;exitDx=0;exitDy=0;" parent="1" source="9n2Kgq9F9miumqy1_BX9-20" target="sFR6SDiXfDD6RgqgtCTZ-4" edge="1">
          <mxGeometry width="50" height="50" relative="1" as="geometry">
            <mxPoint x="1780" y="920" as="sourcePoint" />
            <mxPoint x="1830" y="870" as="targetPoint" />
          </mxGeometry>
        </mxCell>
        <mxCell id="sFR6SDiXfDD6RgqgtCTZ-9" value="" style="endArrow=none;html=1;rounded=0;exitX=1;exitY=0.5;exitDx=0;exitDy=0;entryX=0;entryY=0.5;entryDx=0;entryDy=0;" parent="1" source="9n2Kgq9F9miumqy1_BX9-20" target="sFR6SDiXfDD6RgqgtCTZ-5" edge="1">
          <mxGeometry width="50" height="50" relative="1" as="geometry">
            <mxPoint x="1270" y="690" as="sourcePoint" />
            <mxPoint x="1320" y="640" as="targetPoint" />
          </mxGeometry>
        </mxCell>
        <mxCell id="sFR6SDiXfDD6RgqgtCTZ-10" value="" style="endArrow=none;html=1;rounded=0;entryX=1;entryY=0.5;entryDx=0;entryDy=0;exitX=0;exitY=0.5;exitDx=0;exitDy=0;" parent="1" source="sFR6SDiXfDD6RgqgtCTZ-6" target="9n2Kgq9F9miumqy1_BX9-20" edge="1">
          <mxGeometry width="50" height="50" relative="1" as="geometry">
            <mxPoint x="1790" y="980" as="sourcePoint" />
            <mxPoint x="1840" y="930" as="targetPoint" />
          </mxGeometry>
        </mxCell>
        <mxCell id="sFR6SDiXfDD6RgqgtCTZ-11" value="" style="endArrow=none;html=1;rounded=0;exitX=0;exitY=0.5;exitDx=0;exitDy=0;" parent="1" source="sFR6SDiXfDD6RgqgtCTZ-7" edge="1">
          <mxGeometry width="50" height="50" relative="1" as="geometry">
            <mxPoint x="1770" y="1070" as="sourcePoint" />
            <mxPoint x="1770" y="930" as="targetPoint" />
          </mxGeometry>
        </mxCell>
        <mxCell id="sFR6SDiXfDD6RgqgtCTZ-12" value="&lt;span style=&quot;font-size: 18px;&quot;&gt;&lt;u&gt;Código&lt;/u&gt;&lt;/span&gt;" style="ellipse;whiteSpace=wrap;html=1;fillColor=#EEEEEE;" parent="1" vertex="1">
          <mxGeometry x="680" y="177.5" width="80" height="50" as="geometry" />
        </mxCell>
        <mxCell id="sFR6SDiXfDD6RgqgtCTZ-13" value="&lt;span style=&quot;font-size: 18px;&quot;&gt;Teléfono&lt;/span&gt;" style="ellipse;whiteSpace=wrap;html=1;fillColor=#EEEEEE;" parent="1" vertex="1">
          <mxGeometry x="805" y="125" width="75" height="55" as="geometry" />
        </mxCell>
        <mxCell id="sFR6SDiXfDD6RgqgtCTZ-14" value="&lt;font style=&quot;font-size: 18px;&quot;&gt;Nombre&lt;/font&gt;" style="ellipse;whiteSpace=wrap;html=1;fillColor=#EEEEEE;" parent="1" vertex="1">
          <mxGeometry x="945" y="180" width="75" height="50" as="geometry" />
        </mxCell>
        <mxCell id="sFR6SDiXfDD6RgqgtCTZ-15" value="" style="endArrow=none;html=1;rounded=0;entryX=0.5;entryY=1;entryDx=0;entryDy=0;exitX=0.25;exitY=0;exitDx=0;exitDy=0;" parent="1" source="wN_SJ8lVQeEceDED6Cjc-35" target="sFR6SDiXfDD6RgqgtCTZ-12" edge="1">
          <mxGeometry width="50" height="50" relative="1" as="geometry">
            <mxPoint x="820" y="270" as="sourcePoint" />
            <mxPoint x="870" y="220" as="targetPoint" />
          </mxGeometry>
        </mxCell>
        <mxCell id="sFR6SDiXfDD6RgqgtCTZ-16" value="" style="endArrow=none;html=1;rounded=0;entryX=0.5;entryY=1;entryDx=0;entryDy=0;exitX=0.533;exitY=0.006;exitDx=0;exitDy=0;exitPerimeter=0;" parent="1" source="wN_SJ8lVQeEceDED6Cjc-35" target="sFR6SDiXfDD6RgqgtCTZ-13" edge="1">
          <mxGeometry width="50" height="50" relative="1" as="geometry">
            <mxPoint x="850" y="250" as="sourcePoint" />
            <mxPoint x="890" y="220" as="targetPoint" />
          </mxGeometry>
        </mxCell>
        <mxCell id="sFR6SDiXfDD6RgqgtCTZ-17" value="" style="endArrow=none;html=1;rounded=0;entryX=0;entryY=1;entryDx=0;entryDy=0;exitX=0.75;exitY=0;exitDx=0;exitDy=0;" parent="1" source="wN_SJ8lVQeEceDED6Cjc-35" target="sFR6SDiXfDD6RgqgtCTZ-14" edge="1">
          <mxGeometry width="50" height="50" relative="1" as="geometry">
            <mxPoint x="840" y="260" as="sourcePoint" />
            <mxPoint x="910" y="210" as="targetPoint" />
          </mxGeometry>
        </mxCell>
        <mxCell id="sFR6SDiXfDD6RgqgtCTZ-18" value="" style="endArrow=none;html=1;rounded=0;" parent="1" edge="1">
          <mxGeometry width="50" height="50" relative="1" as="geometry">
            <mxPoint x="1360" y="300" as="sourcePoint" />
            <mxPoint x="1440" y="300" as="targetPoint" />
          </mxGeometry>
        </mxCell>
        <mxCell id="sFR6SDiXfDD6RgqgtCTZ-19" value="&lt;span style=&quot;font-size: 18px;&quot;&gt;&lt;u&gt;Nº_Secuencial&lt;/u&gt;&lt;/span&gt;" style="ellipse;whiteSpace=wrap;html=1;align=center;dashed=1;fillColor=#EEEEEE;" parent="1" vertex="1">
          <mxGeometry x="1440" y="270" width="130" height="55" as="geometry" />
        </mxCell>
        <mxCell id="sFR6SDiXfDD6RgqgtCTZ-20" value="&lt;span style=&quot;font-size: 18px;&quot;&gt;&lt;u&gt;Código&lt;/u&gt;&lt;/span&gt;" style="ellipse;whiteSpace=wrap;html=1;fillColor=#EEEEEE;" parent="1" vertex="1">
          <mxGeometry x="635" y="605" width="80" height="40" as="geometry" />
        </mxCell>
        <mxCell id="sFR6SDiXfDD6RgqgtCTZ-21" value="&lt;span style=&quot;font-size: 18px;&quot;&gt;Fecha_creación&lt;/span&gt;" style="ellipse;whiteSpace=wrap;html=1;fillColor=#EEEEEE;" parent="1" vertex="1">
          <mxGeometry x="575" y="652.5" width="140" height="47.5" as="geometry" />
        </mxCell>
        <mxCell id="sFR6SDiXfDD6RgqgtCTZ-22" value="&lt;span style=&quot;font-size: 18px;&quot;&gt;Fecha_caducidad&lt;/span&gt;" style="ellipse;whiteSpace=wrap;html=1;fillColor=#EEEEEE;" parent="1" vertex="1">
          <mxGeometry x="550" y="705" width="170" height="50" as="geometry" />
        </mxCell>
        <mxCell id="sFR6SDiXfDD6RgqgtCTZ-23" value="&lt;span style=&quot;font-size: 18px;&quot;&gt;Descripción&lt;/span&gt;" style="ellipse;whiteSpace=wrap;html=1;fillColor=#EEEEEE;" parent="1" vertex="1">
          <mxGeometry x="680" y="755" width="100" height="40" as="geometry" />
        </mxCell>
        <mxCell id="sFR6SDiXfDD6RgqgtCTZ-24" value="" style="endArrow=none;html=1;rounded=0;exitX=1;exitY=0.5;exitDx=0;exitDy=0;" parent="1" source="sFR6SDiXfDD6RgqgtCTZ-20" edge="1">
          <mxGeometry width="50" height="50" relative="1" as="geometry">
            <mxPoint x="730" y="670" as="sourcePoint" />
            <mxPoint x="780" y="620" as="targetPoint" />
          </mxGeometry>
        </mxCell>
        <mxCell id="sFR6SDiXfDD6RgqgtCTZ-25" value="" style="endArrow=none;html=1;rounded=0;exitX=1;exitY=0.5;exitDx=0;exitDy=0;entryX=0;entryY=1;entryDx=0;entryDy=0;" parent="1" source="sFR6SDiXfDD6RgqgtCTZ-21" target="boBfQGq755tC5SNfsTAn-7" edge="1">
          <mxGeometry width="50" height="50" relative="1" as="geometry">
            <mxPoint x="750" y="680" as="sourcePoint" />
            <mxPoint x="800" y="630" as="targetPoint" />
          </mxGeometry>
        </mxCell>
        <mxCell id="sFR6SDiXfDD6RgqgtCTZ-26" value="" style="endArrow=none;html=1;rounded=0;exitX=1;exitY=0.5;exitDx=0;exitDy=0;entryX=0;entryY=1;entryDx=0;entryDy=0;" parent="1" source="sFR6SDiXfDD6RgqgtCTZ-22" target="boBfQGq755tC5SNfsTAn-7" edge="1">
          <mxGeometry width="50" height="50" relative="1" as="geometry">
            <mxPoint x="770" y="670" as="sourcePoint" />
            <mxPoint x="780" y="620" as="targetPoint" />
          </mxGeometry>
        </mxCell>
        <mxCell id="sFR6SDiXfDD6RgqgtCTZ-27" value="" style="endArrow=none;html=1;rounded=0;entryX=0;entryY=1;entryDx=0;entryDy=0;exitX=0.5;exitY=0;exitDx=0;exitDy=0;" parent="1" source="sFR6SDiXfDD6RgqgtCTZ-23" target="boBfQGq755tC5SNfsTAn-7" edge="1">
          <mxGeometry width="50" height="50" relative="1" as="geometry">
            <mxPoint x="750" y="750" as="sourcePoint" />
            <mxPoint x="810" y="690" as="targetPoint" />
          </mxGeometry>
        </mxCell>
        <mxCell id="sFR6SDiXfDD6RgqgtCTZ-28" value="&lt;span style=&quot;font-size: 18px;&quot;&gt;&lt;u&gt;ID&lt;/u&gt;&lt;/span&gt;" style="ellipse;whiteSpace=wrap;html=1;fillColor=#EEEEEE;" parent="1" vertex="1">
          <mxGeometry x="1060" y="1000" width="80" height="50" as="geometry" />
        </mxCell>
        <mxCell id="sFR6SDiXfDD6RgqgtCTZ-29" value="&lt;span style=&quot;font-size: 18px;&quot;&gt;Matrícula&lt;/span&gt;" style="ellipse;whiteSpace=wrap;html=1;fillColor=#EEEEEE;" parent="1" vertex="1">
          <mxGeometry x="1165" y="975" width="85" height="50" as="geometry" />
        </mxCell>
        <mxCell id="sFR6SDiXfDD6RgqgtCTZ-31" value="" style="endArrow=none;html=1;rounded=0;entryX=0.5;entryY=1;entryDx=0;entryDy=0;exitX=0.5;exitY=0;exitDx=0;exitDy=0;" parent="1" source="sFR6SDiXfDD6RgqgtCTZ-28" target="9n2Kgq9F9miumqy1_BX9-3" edge="1">
          <mxGeometry width="50" height="50" relative="1" as="geometry">
            <mxPoint x="1030" y="1010" as="sourcePoint" />
            <mxPoint x="1080" y="960" as="targetPoint" />
          </mxGeometry>
        </mxCell>
        <mxCell id="sFR6SDiXfDD6RgqgtCTZ-32" value="" style="endArrow=none;html=1;rounded=0;exitX=0.5;exitY=0;exitDx=0;exitDy=0;entryX=0.5;entryY=1;entryDx=0;entryDy=0;" parent="1" source="sFR6SDiXfDD6RgqgtCTZ-29" target="9n2Kgq9F9miumqy1_BX9-3" edge="1">
          <mxGeometry width="50" height="50" relative="1" as="geometry">
            <mxPoint x="1210" y="1000" as="sourcePoint" />
            <mxPoint x="1260" y="950" as="targetPoint" />
          </mxGeometry>
        </mxCell>
        <mxCell id="sFR6SDiXfDD6RgqgtCTZ-33" value="&lt;span style=&quot;font-size: 18px;&quot;&gt;Dirección&lt;/span&gt;" style="ellipse;whiteSpace=wrap;html=1;fillColor=#EEEEEE;" parent="1" vertex="1">
          <mxGeometry x="460" y="1020" width="80" height="50" as="geometry" />
        </mxCell>
        <mxCell id="sFR6SDiXfDD6RgqgtCTZ-34" value="&lt;span style=&quot;font-size: 18px;&quot;&gt;Teléfono&lt;/span&gt;" style="ellipse;whiteSpace=wrap;html=1;fillColor=#EEEEEE;" parent="1" vertex="1">
          <mxGeometry x="450" y="960" width="80" height="50" as="geometry" />
        </mxCell>
        <mxCell id="sFR6SDiXfDD6RgqgtCTZ-35" value="" style="endArrow=none;html=1;rounded=0;entryX=0.5;entryY=1;entryDx=0;entryDy=0;exitX=1;exitY=0;exitDx=0;exitDy=0;" parent="1" source="sFR6SDiXfDD6RgqgtCTZ-34" target="9n2Kgq9F9miumqy1_BX9-2" edge="1">
          <mxGeometry width="50" height="50" relative="1" as="geometry">
            <mxPoint x="540" y="1000" as="sourcePoint" />
            <mxPoint x="590" y="950" as="targetPoint" />
          </mxGeometry>
        </mxCell>
        <mxCell id="sFR6SDiXfDD6RgqgtCTZ-36" value="" style="endArrow=none;html=1;rounded=0;entryX=0.5;entryY=1;entryDx=0;entryDy=0;exitX=0.5;exitY=0;exitDx=0;exitDy=0;" parent="1" source="sFR6SDiXfDD6RgqgtCTZ-33" target="9n2Kgq9F9miumqy1_BX9-2" edge="1">
          <mxGeometry width="50" height="50" relative="1" as="geometry">
            <mxPoint x="640" y="1010" as="sourcePoint" />
            <mxPoint x="690" y="960" as="targetPoint" />
          </mxGeometry>
        </mxCell>
        <mxCell id="EjBYFWdCqptAFFjmYWKn-1" value="(1,N)" style="text;html=1;align=center;verticalAlign=middle;whiteSpace=wrap;rounded=0;" parent="1" vertex="1">
          <mxGeometry x="340" y="370" width="60" height="30" as="geometry" />
        </mxCell>
        <mxCell id="EjBYFWdCqptAFFjmYWKn-2" value="(1,M)" style="text;html=1;align=center;verticalAlign=middle;whiteSpace=wrap;rounded=0;" parent="1" vertex="1">
          <mxGeometry x="715" y="285" width="60" height="30" as="geometry" />
        </mxCell>
        <mxCell id="EjBYFWdCqptAFFjmYWKn-3" value="(0,N)" style="text;html=1;align=center;verticalAlign=middle;whiteSpace=wrap;rounded=0;" parent="1" vertex="1">
          <mxGeometry x="360" y="450" width="60" height="30" as="geometry" />
        </mxCell>
        <mxCell id="EjBYFWdCqptAFFjmYWKn-4" value="(1,1)" style="text;html=1;align=center;verticalAlign=middle;whiteSpace=wrap;rounded=0;" parent="1" vertex="1">
          <mxGeometry x="735" y="330" width="60" height="30" as="geometry" />
        </mxCell>
        <mxCell id="EjBYFWdCqptAFFjmYWKn-5" value="(0,N)" style="text;html=1;align=center;verticalAlign=middle;whiteSpace=wrap;rounded=0;" parent="1" vertex="1">
          <mxGeometry x="825" y="325" width="60" height="30" as="geometry" />
        </mxCell>
        <mxCell id="EjBYFWdCqptAFFjmYWKn-6" value="(0,N)" style="text;html=1;align=center;verticalAlign=middle;whiteSpace=wrap;rounded=0;" parent="1" vertex="1">
          <mxGeometry x="885" y="270" width="60" height="30" as="geometry" />
        </mxCell>
        <mxCell id="EjBYFWdCqptAFFjmYWKn-7" value="(1,1)" style="text;html=1;align=center;verticalAlign=middle;whiteSpace=wrap;rounded=0;" parent="1" vertex="1">
          <mxGeometry x="1190" y="270" width="60" height="30" as="geometry" />
        </mxCell>
        <mxCell id="EjBYFWdCqptAFFjmYWKn-8" value="(1,1)" style="text;html=1;align=center;verticalAlign=middle;whiteSpace=wrap;rounded=0;" parent="1" vertex="1">
          <mxGeometry x="825" y="535" width="60" height="30" as="geometry" />
        </mxCell>
        <mxCell id="EjBYFWdCqptAFFjmYWKn-9" value="(1,1)" style="text;html=1;align=center;verticalAlign=middle;whiteSpace=wrap;rounded=0;" parent="1" vertex="1">
          <mxGeometry x="825" y="620" width="60" height="30" as="geometry" />
        </mxCell>
        <mxCell id="EjBYFWdCqptAFFjmYWKn-10" value="(0,N)" style="text;html=1;align=center;verticalAlign=middle;whiteSpace=wrap;rounded=0;" parent="1" vertex="1">
          <mxGeometry x="795" y="830" width="60" height="30" as="geometry" />
        </mxCell>
        <mxCell id="EjBYFWdCqptAFFjmYWKn-11" value="(1,1)" style="text;html=1;align=center;verticalAlign=middle;whiteSpace=wrap;rounded=0;" parent="1" vertex="1">
          <mxGeometry x="1270" y="895" width="60" height="30" as="geometry" />
        </mxCell>
        <mxCell id="EjBYFWdCqptAFFjmYWKn-12" value="(1,N)" style="text;html=1;align=center;verticalAlign=middle;whiteSpace=wrap;rounded=0;" parent="1" vertex="1">
          <mxGeometry x="1540" y="895" width="60" height="30" as="geometry" />
        </mxCell>
        <mxCell id="EjBYFWdCqptAFFjmYWKn-13" value="(0,N)" style="text;html=1;align=center;verticalAlign=middle;whiteSpace=wrap;rounded=0;" parent="1" vertex="1">
          <mxGeometry x="-110" y="410" width="60" height="30" as="geometry" />
        </mxCell>
        <mxCell id="EjBYFWdCqptAFFjmYWKn-14" value="(1,1)" style="text;html=1;align=center;verticalAlign=middle;whiteSpace=wrap;rounded=0;" parent="1" vertex="1">
          <mxGeometry x="-70" y="480" width="60" height="30" as="geometry" />
        </mxCell>
        <mxCell id="EjBYFWdCqptAFFjmYWKn-15" value="dirige a" style="text;html=1;align=center;verticalAlign=middle;whiteSpace=wrap;rounded=0;" parent="1" vertex="1">
          <mxGeometry x="-110" y="430" width="60" height="30" as="geometry" />
        </mxCell>
        <mxCell id="EjBYFWdCqptAFFjmYWKn-17" value="dirigido por" style="text;html=1;align=center;verticalAlign=middle;whiteSpace=wrap;rounded=0;" parent="1" vertex="1">
          <mxGeometry x="-70" y="505" width="60" height="30" as="geometry" />
        </mxCell>
        <mxCell id="cMPm9qXNbd8lJD3Um6Hj-16" value="" style="shape=requiredInterface;html=1;verticalLabelPosition=bottom;sketch=0;direction=south;" parent="1" vertex="1">
          <mxGeometry x="96.25" y="525" width="47.5" height="25" as="geometry" />
        </mxCell>
        <mxCell id="EjBYFWdCqptAFFjmYWKn-21" value="(0,N)" style="text;html=1;align=center;verticalAlign=middle;whiteSpace=wrap;rounded=0;" parent="1" vertex="1">
          <mxGeometry x="220" y="660" width="60" height="30" as="geometry" />
        </mxCell>
        <mxCell id="EjBYFWdCqptAFFjmYWKn-22" value="(1,1)" style="text;html=1;align=center;verticalAlign=middle;whiteSpace=wrap;rounded=0;" parent="1" vertex="1">
          <mxGeometry x="710" y="1150" width="60" height="30" as="geometry" />
        </mxCell>
        <mxCell id="EjBYFWdCqptAFFjmYWKn-23" value="(0,N)" style="text;html=1;align=center;verticalAlign=middle;whiteSpace=wrap;rounded=0;" parent="1" vertex="1">
          <mxGeometry x="30" y="490" width="60" height="30" as="geometry" />
        </mxCell>
        <mxCell id="EjBYFWdCqptAFFjmYWKn-24" value="(1,1)" style="text;html=1;align=center;verticalAlign=middle;whiteSpace=wrap;rounded=0;" parent="1" vertex="1">
          <mxGeometry x="735" y="565" width="60" height="30" as="geometry" />
        </mxCell>
        <mxCell id="EjBYFWdCqptAFFjmYWKn-25" value="(1,N)" style="text;html=1;align=center;verticalAlign=middle;whiteSpace=wrap;rounded=0;" parent="1" vertex="1">
          <mxGeometry x="980" y="900" width="60" height="30" as="geometry" />
        </mxCell>
        <mxCell id="EjBYFWdCqptAFFjmYWKn-26" value="(1,1)" style="text;html=1;align=center;verticalAlign=middle;whiteSpace=wrap;rounded=0;" parent="1" vertex="1">
          <mxGeometry x="655" y="920" width="60" height="30" as="geometry" />
        </mxCell>
        <mxCell id="5Loo3oK0hSytX8gZ4C4K-6" value="&lt;u&gt;ID&lt;/u&gt;" style="ellipse;whiteSpace=wrap;html=1;fillColor=#eeeeee;strokeColor=#000000;fontColor=#000000;" parent="1" vertex="1">
          <mxGeometry x="-30" y="210" width="60" height="40" as="geometry" />
        </mxCell>
        <mxCell id="5Loo3oK0hSytX8gZ4C4K-7" value="" style="endArrow=none;html=1;rounded=0;entryX=1;entryY=0.5;entryDx=0;entryDy=0;fillColor=#f5f5f5;strokeColor=#000000;" parent="1" target="5Loo3oK0hSytX8gZ4C4K-6" edge="1">
          <mxGeometry width="50" height="50" relative="1" as="geometry">
            <mxPoint x="100" y="220" as="sourcePoint" />
            <mxPoint x="150" y="220" as="targetPoint" />
          </mxGeometry>
        </mxCell>
        <mxCell id="5Loo3oK0hSytX8gZ4C4K-12" value="" style="endArrow=none;html=1;rounded=0;fillColor=#f5f5f5;strokeColor=#000000;entryX=0;entryY=1;entryDx=0;entryDy=0;" parent="1" target="5Loo3oK0hSytX8gZ4C4K-14" edge="1">
          <mxGeometry width="50" height="50" relative="1" as="geometry">
            <mxPoint x="170" y="180" as="sourcePoint" />
            <mxPoint x="230" y="100" as="targetPoint" />
          </mxGeometry>
        </mxCell>
        <mxCell id="5Loo3oK0hSytX8gZ4C4K-13" value="" style="endArrow=none;html=1;rounded=0;entryX=0;entryY=0.5;entryDx=0;entryDy=0;fillColor=#f5f5f5;strokeColor=#000000;exitX=1;exitY=0.25;exitDx=0;exitDy=0;" parent="1" source="wN_SJ8lVQeEceDED6Cjc-15" target="wN_SJ8lVQeEceDED6Cjc-9" edge="1">
          <mxGeometry width="50" height="50" relative="1" as="geometry">
            <mxPoint x="180" y="190" as="sourcePoint" />
            <mxPoint x="235" y="120" as="targetPoint" />
          </mxGeometry>
        </mxCell>
        <mxCell id="5Loo3oK0hSytX8gZ4C4K-14" value="Dirección" style="ellipse;whiteSpace=wrap;html=1;fillColor=#eeeeee;strokeColor=#000000;labelBackgroundColor=none;fontColor=#000000;" parent="1" vertex="1">
          <mxGeometry x="240" y="77.5" width="80" height="40" as="geometry" />
        </mxCell>
        <mxCell id="5Loo3oK0hSytX8gZ4C4K-17" value="Nombre" style="ellipse;whiteSpace=wrap;html=1;fillColor=#eeeeee;strokeColor=#000000;fontColor=#000000;" parent="1" vertex="1">
          <mxGeometry x="96.25" y="50" width="60" height="40" as="geometry" />
        </mxCell>
        <mxCell id="5Loo3oK0hSytX8gZ4C4K-18" value="" style="endArrow=none;html=1;rounded=0;entryX=0.5;entryY=1;entryDx=0;entryDy=0;fillColor=#f5f5f5;strokeColor=#000000;" parent="1" target="5Loo3oK0hSytX8gZ4C4K-17" edge="1">
          <mxGeometry width="50" height="50" relative="1" as="geometry">
            <mxPoint x="143" y="180" as="sourcePoint" />
            <mxPoint x="275" y="77.5" as="targetPoint" />
          </mxGeometry>
        </mxCell>
        <mxCell id="5Loo3oK0hSytX8gZ4C4K-19" value="Apellidos" style="ellipse;whiteSpace=wrap;html=1;fillColor=#eeeeee;strokeColor=#000000;fontColor=#000000;" parent="1" vertex="1">
          <mxGeometry x="167.5" y="50" width="60" height="40" as="geometry" />
        </mxCell>
        <mxCell id="5Loo3oK0hSytX8gZ4C4K-20" value="" style="endArrow=none;html=1;rounded=0;entryX=1;entryY=1;entryDx=0;entryDy=0;fillColor=#f5f5f5;strokeColor=#000000;exitX=0.5;exitY=0;exitDx=0;exitDy=0;" parent="1" source="wN_SJ8lVQeEceDED6Cjc-15" target="5Loo3oK0hSytX8gZ4C4K-19" edge="1">
          <mxGeometry width="50" height="50" relative="1" as="geometry">
            <mxPoint x="297.5" y="90" as="sourcePoint" />
            <mxPoint x="347.5" y="90" as="targetPoint" />
          </mxGeometry>
        </mxCell>
        <mxCell id="5Loo3oK0hSytX8gZ4C4K-22" value="&lt;u&gt;ID&lt;/u&gt;" style="ellipse;whiteSpace=wrap;html=1;fillColor=#eeeeee;strokeColor=#000000;fontColor=#000000;" parent="1" vertex="1">
          <mxGeometry x="130" y="755" width="60" height="40" as="geometry" />
        </mxCell>
        <mxCell id="5Loo3oK0hSytX8gZ4C4K-23" value="" style="endArrow=none;html=1;rounded=0;entryX=0.5;entryY=0;entryDx=0;entryDy=0;fillColor=#f5f5f5;strokeColor=#000000;exitX=0.5;exitY=1;exitDx=0;exitDy=0;" parent="1" source="wN_SJ8lVQeEceDED6Cjc-33" target="5Loo3oK0hSytX8gZ4C4K-22" edge="1">
          <mxGeometry width="50" height="50" relative="1" as="geometry">
            <mxPoint x="262.5" y="795" as="sourcePoint" />
            <mxPoint x="312.5" y="795" as="targetPoint" />
          </mxGeometry>
        </mxCell>
        <mxCell id="5Loo3oK0hSytX8gZ4C4K-32" value="&lt;span style=&quot;font-size: 18px;&quot;&gt;DNI&lt;/span&gt;" style="ellipse;whiteSpace=wrap;html=1;fillColor=#EEEEEE;" parent="1" vertex="1">
          <mxGeometry x="950" y="975" width="80" height="50" as="geometry" />
        </mxCell>
        <mxCell id="5Loo3oK0hSytX8gZ4C4K-33" value="" style="endArrow=none;html=1;rounded=0;entryX=1;entryY=0;entryDx=0;entryDy=0;" parent="1" target="5Loo3oK0hSytX8gZ4C4K-32" edge="1">
          <mxGeometry width="50" height="50" relative="1" as="geometry">
            <mxPoint x="1100" y="955" as="sourcePoint" />
            <mxPoint x="1510" y="1092.5" as="targetPoint" />
          </mxGeometry>
        </mxCell>
        <mxCell id="5Loo3oK0hSytX8gZ4C4K-45" value="&lt;span style=&quot;font-size: 18px;&quot;&gt;Nombre&lt;/span&gt;" style="ellipse;whiteSpace=wrap;html=1;fillColor=#EEEEEE;" parent="1" vertex="1">
          <mxGeometry x="630" y="1060" width="80" height="50" as="geometry" />
        </mxCell>
        <mxCell id="5Loo3oK0hSytX8gZ4C4K-46" value="" style="endArrow=none;html=1;rounded=0;entryX=0.009;entryY=0.325;entryDx=0;entryDy=0;exitX=0.5;exitY=1;exitDx=0;exitDy=0;entryPerimeter=0;" parent="1" source="9n2Kgq9F9miumqy1_BX9-2" target="5Loo3oK0hSytX8gZ4C4K-45" edge="1">
          <mxGeometry width="50" height="50" relative="1" as="geometry">
            <mxPoint x="1470" y="1157.5" as="sourcePoint" />
            <mxPoint x="1530" y="1112.5" as="targetPoint" />
          </mxGeometry>
        </mxCell>
        <mxCell id="J3K2UJwVTwFjLo8f-e93-3" value="" style="endArrow=none;html=1;rounded=0;entryX=0.067;entryY=0.734;entryDx=0;entryDy=0;entryPerimeter=0;" parent="1" edge="1">
          <mxGeometry width="50" height="50" relative="1" as="geometry">
            <mxPoint x="1360" y="300" as="sourcePoint" />
            <mxPoint x="1472.525" y="226.69999999999993" as="targetPoint" />
          </mxGeometry>
        </mxCell>
        <mxCell id="J3K2UJwVTwFjLo8f-e93-5" value="" style="endArrow=none;html=1;rounded=0;entryX=0.061;entryY=0.227;entryDx=0;entryDy=0;entryPerimeter=0;" parent="1" edge="1">
          <mxGeometry width="50" height="50" relative="1" as="geometry">
            <mxPoint x="1360" y="300" as="sourcePoint" />
            <mxPoint x="1456.7100000000005" y="368.6199999999999" as="targetPoint" />
          </mxGeometry>
        </mxCell>
        <mxCell id="XJi9lOGpEn43w0IeF_J8-2" value="Fecha de inicio de contrato" style="ellipse;whiteSpace=wrap;html=1;fillColor=#eeeeee;strokeColor=#000000;fontColor=#000000;" parent="1" vertex="1">
          <mxGeometry x="260" y="240" width="130" height="50" as="geometry" />
        </mxCell>
        <mxCell id="XJi9lOGpEn43w0IeF_J8-3" value="" style="endArrow=none;html=1;rounded=0;entryX=0.282;entryY=0.039;entryDx=0;entryDy=0;fillColor=#f5f5f5;strokeColor=#000000;exitX=1;exitY=0.75;exitDx=0;exitDy=0;entryPerimeter=0;" parent="1" source="wN_SJ8lVQeEceDED6Cjc-15" target="XJi9lOGpEn43w0IeF_J8-2" edge="1">
          <mxGeometry width="50" height="50" relative="1" as="geometry">
            <mxPoint x="227.5" y="230" as="sourcePoint" />
            <mxPoint x="297.5" y="235" as="targetPoint" />
          </mxGeometry>
        </mxCell>
        <mxCell id="XJi9lOGpEn43w0IeF_J8-4" value="&lt;span style=&quot;font-size: 18px;&quot;&gt;Nombre&lt;/span&gt;" style="ellipse;whiteSpace=wrap;html=1;align=center;dashed=1;fillColor=#EEEEEE;" parent="1" vertex="1">
          <mxGeometry x="1465" y="190" width="80" height="50" as="geometry" />
        </mxCell>
        <mxCell id="XJi9lOGpEn43w0IeF_J8-6" value="&lt;span style=&quot;font-size: 18px;&quot;&gt;Descripción&lt;/span&gt;" style="ellipse;whiteSpace=wrap;html=1;align=center;dashed=1;fillColor=#EEEEEE;" parent="1" vertex="1">
          <mxGeometry x="1450" y="355" width="110" height="60" as="geometry" />
        </mxCell>
        <mxCell id="BKrE5CdVi_hUaY5fy5tm-1" value="" style="rounded=0;whiteSpace=wrap;html=1;" parent="1" vertex="1">
          <mxGeometry x="1240" y="265" width="120" height="60" as="geometry" />
        </mxCell>
        <mxCell id="BKrE5CdVi_hUaY5fy5tm-2" value="&lt;span style=&quot;font-size: 18px;&quot;&gt;Proyecto&lt;/span&gt;" style="rounded=0;whiteSpace=wrap;html=1;" parent="1" vertex="1">
          <mxGeometry x="1245" y="270" width="110" height="50" as="geometry" />
        </mxCell>
        <mxCell id="BKrE5CdVi_hUaY5fy5tm-3" value="&lt;span style=&quot;font-size: 18px;&quot;&gt;&lt;u&gt;ID&lt;/u&gt;&lt;/span&gt;" style="ellipse;whiteSpace=wrap;html=1;fillColor=#EEEEEE;" parent="1" vertex="1">
          <mxGeometry x="540" y="1060" width="80" height="50" as="geometry" />
        </mxCell>
        <mxCell id="BKrE5CdVi_hUaY5fy5tm-6" value="" style="endArrow=none;html=1;rounded=0;exitX=0.388;exitY=0.024;exitDx=0;exitDy=0;exitPerimeter=0;entryX=0.5;entryY=1;entryDx=0;entryDy=0;" parent="1" source="BKrE5CdVi_hUaY5fy5tm-3" target="9n2Kgq9F9miumqy1_BX9-2" edge="1">
          <mxGeometry width="50" height="50" relative="1" as="geometry">
            <mxPoint x="560" y="1010" as="sourcePoint" />
            <mxPoint x="610" y="960" as="targetPoint" />
          </mxGeometry>
        </mxCell>
        <mxCell id="mnFum2FiqYeraL-pWcZH-1" value="&lt;font style=&quot;font-size: 18px;&quot;&gt;Temperatura&lt;/font&gt;" style="ellipse;whiteSpace=wrap;html=1;fillColor=#EEEEEE;" vertex="1" parent="1">
          <mxGeometry x="1430" y="477.5" width="120" height="55" as="geometry" />
        </mxCell>
        <mxCell id="mnFum2FiqYeraL-pWcZH-2" value="" style="endArrow=none;html=1;rounded=0;exitX=1;exitY=0.5;exitDx=0;exitDy=0;" edge="1" parent="1" source="boBfQGq755tC5SNfsTAn-14">
          <mxGeometry width="50" height="50" relative="1" as="geometry">
            <mxPoint x="1380" y="550" as="sourcePoint" />
            <mxPoint x="1430" y="505" as="targetPoint" />
          </mxGeometry>
        </mxCell>
        <mxCell id="mnFum2FiqYeraL-pWcZH-3" value="&lt;font style=&quot;font-size: 18px;&quot;&gt;Tipo&lt;/font&gt;" style="ellipse;whiteSpace=wrap;html=1;fillColor=#EEEEEE;" vertex="1" parent="1">
          <mxGeometry x="1430" y="575" width="120" height="50" as="geometry" />
        </mxCell>
        <mxCell id="mnFum2FiqYeraL-pWcZH-4" value="" style="endArrow=none;html=1;rounded=0;exitX=1;exitY=0.5;exitDx=0;exitDy=0;entryX=0;entryY=0.5;entryDx=0;entryDy=0;" edge="1" parent="1" source="boBfQGq755tC5SNfsTAn-17" target="mnFum2FiqYeraL-pWcZH-3">
          <mxGeometry width="50" height="50" relative="1" as="geometry">
            <mxPoint x="1360" y="640" as="sourcePoint" />
            <mxPoint x="1410" y="590" as="targetPoint" />
          </mxGeometry>
        </mxCell>
        <mxCell id="mnFum2FiqYeraL-pWcZH-5" value="&lt;font style=&quot;font-size: 18px;&quot;&gt;con_receta&lt;/font&gt;" style="ellipse;whiteSpace=wrap;html=1;fillColor=#EEEEEE;" vertex="1" parent="1">
          <mxGeometry x="1435" y="677.5" width="110" height="55" as="geometry" />
        </mxCell>
        <mxCell id="mnFum2FiqYeraL-pWcZH-6" value="" style="endArrow=none;html=1;rounded=0;exitX=1;exitY=0.5;exitDx=0;exitDy=0;entryX=0;entryY=0.5;entryDx=0;entryDy=0;" edge="1" parent="1" source="boBfQGq755tC5SNfsTAn-19" target="mnFum2FiqYeraL-pWcZH-5">
          <mxGeometry width="50" height="50" relative="1" as="geometry">
            <mxPoint x="1330" y="730" as="sourcePoint" />
            <mxPoint x="1380" y="680" as="targetPoint" />
          </mxGeometry>
        </mxCell>
      </root>
    </mxGraphModel>
  </diagram>
</mxfile>
